<mxfile host="app.diagrams.net" modified="2021-12-13T14:25:21.242Z" agent="5.0 (Windows NT 10.0; Win64; x64) AppleWebKit/537.36 (KHTML, like Gecko) Chrome/96.0.4664.45 Safari/537.36" etag="_NlgeIaH4uFkWmsvuR2k" version="15.9.4" type="github">
  <diagram id="rfBL10wocHRft_z7eCVr" name="第 1 页">
    <mxGraphModel dx="1034" dy="586" grid="0" gridSize="10" guides="1" tooltips="1" connect="1" arrows="1" fold="1" page="1" pageScale="1" pageWidth="827" pageHeight="1169" math="0" shadow="0">
      <root>
        <mxCell id="0" />
        <mxCell id="1" parent="0" />
        <mxCell id="E125X7Nx4pRz1DZNlilT-13" style="edgeStyle=orthogonalEdgeStyle;rounded=0;orthogonalLoop=1;jettySize=auto;html=1;exitX=1;exitY=0.5;exitDx=0;exitDy=0;entryX=0;entryY=0.5;entryDx=0;entryDy=0;fontSize=11;strokeColor=#F9A8FF;" edge="1" parent="1" source="E125X7Nx4pRz1DZNlilT-1" target="E125X7Nx4pRz1DZNlilT-11">
          <mxGeometry relative="1" as="geometry" />
        </mxCell>
        <mxCell id="E125X7Nx4pRz1DZNlilT-1" value="选择模型" style="rounded=1;whiteSpace=wrap;html=1;fillColor=#FFE8E6;strokeColor=#b85450;" vertex="1" parent="1">
          <mxGeometry x="80" y="120" width="80" height="40" as="geometry" />
        </mxCell>
        <mxCell id="E125X7Nx4pRz1DZNlilT-3" value="创建数据集" style="rounded=1;whiteSpace=wrap;html=1;" vertex="1" parent="1">
          <mxGeometry x="685" y="420" width="80" height="40" as="geometry" />
        </mxCell>
        <mxCell id="E125X7Nx4pRz1DZNlilT-4" value="训练模型" style="rounded=1;whiteSpace=wrap;html=1;" vertex="1" parent="1">
          <mxGeometry x="855" y="430" width="80" height="40" as="geometry" />
        </mxCell>
        <mxCell id="E125X7Nx4pRz1DZNlilT-5" value="&lt;font style=&quot;font-size: 11px&quot;&gt;数据集是&lt;br&gt;否存在&lt;/font&gt;" style="rhombus;whiteSpace=wrap;html=1;" vertex="1" parent="1">
          <mxGeometry x="770" y="10" width="80" height="60" as="geometry" />
        </mxCell>
        <mxCell id="E125X7Nx4pRz1DZNlilT-6" value="上传数据" style="rounded=1;whiteSpace=wrap;html=1;" vertex="1" parent="1">
          <mxGeometry x="685" y="500" width="80" height="40" as="geometry" />
        </mxCell>
        <mxCell id="E125X7Nx4pRz1DZNlilT-8" value="发布模型" style="rounded=1;whiteSpace=wrap;html=1;" vertex="1" parent="1">
          <mxGeometry x="680" y="120" width="80" height="40" as="geometry" />
        </mxCell>
        <mxCell id="E125X7Nx4pRz1DZNlilT-10" value="输出结果" style="rounded=1;whiteSpace=wrap;html=1;" vertex="1" parent="1">
          <mxGeometry x="910" y="120" width="80" height="40" as="geometry" />
        </mxCell>
        <mxCell id="E125X7Nx4pRz1DZNlilT-16" style="edgeStyle=orthogonalEdgeStyle;rounded=0;orthogonalLoop=1;jettySize=auto;html=1;exitX=1;exitY=0.5;exitDx=0;exitDy=0;entryX=0;entryY=0.5;entryDx=0;entryDy=0;fontSize=11;strokeColor=#F9A8FF;" edge="1" parent="1" source="E125X7Nx4pRz1DZNlilT-11" target="E125X7Nx4pRz1DZNlilT-12">
          <mxGeometry relative="1" as="geometry" />
        </mxCell>
        <mxCell id="E125X7Nx4pRz1DZNlilT-11" value="创建模型" style="rounded=1;whiteSpace=wrap;html=1;fillColor=#FFE8E6;strokeColor=#b85450;" vertex="1" parent="1">
          <mxGeometry x="220" y="120" width="80" height="40" as="geometry" />
        </mxCell>
        <mxCell id="E125X7Nx4pRz1DZNlilT-12" value="创建数据集" style="rounded=1;whiteSpace=wrap;html=1;fillColor=#FFE8E6;strokeColor=#b85450;" vertex="1" parent="1">
          <mxGeometry x="360" y="120" width="80" height="40" as="geometry" />
        </mxCell>
        <mxCell id="E125X7Nx4pRz1DZNlilT-22" style="edgeStyle=orthogonalEdgeStyle;rounded=0;orthogonalLoop=1;jettySize=auto;html=1;exitX=1;exitY=0.5;exitDx=0;exitDy=0;entryX=0;entryY=0.5;entryDx=0;entryDy=0;fontSize=11;strokeColor=#F9A8FF;" edge="1" parent="1" source="E125X7Nx4pRz1DZNlilT-17" target="E125X7Nx4pRz1DZNlilT-20">
          <mxGeometry relative="1" as="geometry" />
        </mxCell>
        <mxCell id="E125X7Nx4pRz1DZNlilT-17" value="上传数据" style="rounded=1;whiteSpace=wrap;html=1;fillColor=#FFE8E6;strokeColor=#b85450;" vertex="1" parent="1">
          <mxGeometry x="102" y="200" width="80" height="40" as="geometry" />
        </mxCell>
        <mxCell id="E125X7Nx4pRz1DZNlilT-18" value="" style="curved=1;endArrow=classic;html=1;rounded=0;fontSize=11;strokeColor=#F9A8FF;entryX=0;entryY=0.5;entryDx=0;entryDy=0;" edge="1" parent="1" target="E125X7Nx4pRz1DZNlilT-17">
          <mxGeometry width="50" height="50" relative="1" as="geometry">
            <mxPoint x="440" y="140" as="sourcePoint" />
            <mxPoint x="490" y="90" as="targetPoint" />
            <Array as="points">
              <mxPoint x="490" y="140" />
              <mxPoint x="440" y="170" />
              <mxPoint x="30" y="190" />
            </Array>
          </mxGeometry>
        </mxCell>
        <mxCell id="E125X7Nx4pRz1DZNlilT-23" style="edgeStyle=orthogonalEdgeStyle;rounded=0;orthogonalLoop=1;jettySize=auto;html=1;exitX=1;exitY=0.5;exitDx=0;exitDy=0;entryX=0;entryY=0.5;entryDx=0;entryDy=0;fontSize=11;strokeColor=#F9A8FF;" edge="1" parent="1" source="E125X7Nx4pRz1DZNlilT-20" target="E125X7Nx4pRz1DZNlilT-21">
          <mxGeometry relative="1" as="geometry" />
        </mxCell>
        <mxCell id="E125X7Nx4pRz1DZNlilT-20" value="训练模型" style="rounded=1;whiteSpace=wrap;html=1;fillColor=#FFE8E6;strokeColor=#b85450;" vertex="1" parent="1">
          <mxGeometry x="242" y="200" width="80" height="40" as="geometry" />
        </mxCell>
        <mxCell id="E125X7Nx4pRz1DZNlilT-21" value="校验模型" style="rounded=1;whiteSpace=wrap;html=1;fillColor=#FFE8E6;strokeColor=#b85450;" vertex="1" parent="1">
          <mxGeometry x="382" y="200" width="80" height="40" as="geometry" />
        </mxCell>
        <mxCell id="E125X7Nx4pRz1DZNlilT-24" value="" style="curved=1;endArrow=classic;html=1;rounded=0;fontSize=11;strokeColor=#F9A8FF;entryX=0;entryY=0.5;entryDx=0;entryDy=0;exitX=1;exitY=0.5;exitDx=0;exitDy=0;" edge="1" parent="1" source="E125X7Nx4pRz1DZNlilT-21">
          <mxGeometry width="50" height="50" relative="1" as="geometry">
            <mxPoint x="482" y="219" as="sourcePoint" />
            <mxPoint x="122" y="299" as="targetPoint" />
            <Array as="points">
              <mxPoint x="507" y="219" />
              <mxPoint x="482" y="249" />
              <mxPoint x="72" y="269" />
            </Array>
          </mxGeometry>
        </mxCell>
        <mxCell id="E125X7Nx4pRz1DZNlilT-32" style="edgeStyle=orthogonalEdgeStyle;rounded=0;orthogonalLoop=1;jettySize=auto;html=1;exitX=1;exitY=0.5;exitDx=0;exitDy=0;entryX=0;entryY=0.5;entryDx=0;entryDy=0;fontSize=11;strokeColor=#F9A8FF;" edge="1" parent="1" source="E125X7Nx4pRz1DZNlilT-28" target="E125X7Nx4pRz1DZNlilT-29">
          <mxGeometry relative="1" as="geometry" />
        </mxCell>
        <mxCell id="E125X7Nx4pRz1DZNlilT-28" value="调用模型" style="rounded=1;whiteSpace=wrap;html=1;fillColor=#FFE8E6;strokeColor=#b85450;" vertex="1" parent="1">
          <mxGeometry x="262" y="280" width="80" height="40" as="geometry" />
        </mxCell>
        <mxCell id="E125X7Nx4pRz1DZNlilT-29" value="输出结果" style="rounded=1;whiteSpace=wrap;html=1;fillColor=#FFE8E6;strokeColor=#b85450;" vertex="1" parent="1">
          <mxGeometry x="402" y="280" width="80" height="40" as="geometry" />
        </mxCell>
        <mxCell id="E125X7Nx4pRz1DZNlilT-31" style="edgeStyle=orthogonalEdgeStyle;rounded=0;orthogonalLoop=1;jettySize=auto;html=1;exitX=1;exitY=0.5;exitDx=0;exitDy=0;entryX=0;entryY=0.5;entryDx=0;entryDy=0;fontSize=11;strokeColor=#F9A8FF;" edge="1" parent="1" source="E125X7Nx4pRz1DZNlilT-30" target="E125X7Nx4pRz1DZNlilT-28">
          <mxGeometry relative="1" as="geometry" />
        </mxCell>
        <mxCell id="E125X7Nx4pRz1DZNlilT-30" value="发布模型" style="rounded=1;whiteSpace=wrap;html=1;fillColor=#FFE8E6;strokeColor=#b85450;" vertex="1" parent="1">
          <mxGeometry x="122" y="280" width="80" height="40" as="geometry" />
        </mxCell>
      </root>
    </mxGraphModel>
  </diagram>
</mxfile>
